# xmcd
# 
# Track frame offsets:
#     150
#     17265
#     39987
#     54585
#     75387
#     100655
#     115420
#     129165
#     154770
#     165467
#     186215
# 
# Disc length: 2718
# 
# Revision: 17
# Processed by: cddbd v1.5.2PL0 Copyright (c) Steve Scherf et al.
# Submitted via: fre:ac v1.0.31
# 
DISCID=740a9c0b
DTITLE=Emmylou Harris - Stumble Into Grace
DYEAR=2003
DGENRE=Country
TTITLE0=Here I Am
TTITLE1=I Will Dream
TTITLE2=Little Bird
TTITLE3=Time in Babylon
TTITLE4=Can You Hear Me Now
TTITLE5=Strong Hand
TTITLE6=Jupiter Rising
TTITLE7=O Evangeline
TTITLE8=Plaisir d'Amour
TTITLE9=Lost Unto This World
TTITLE10=Cup of Kindness
EXTD=
EXTT0=
EXTT1=
EXTT2=
EXTT3=
EXTT4=
EXTT5=
EXTT6=
EXTT7=
EXTT8=
EXTT9=
EXTT10=
PLAYORDER=
